<svg xmlns="http://www.w3.org/2000/svg" version="1.1" xmlns:xlink="http://www.w3.org/1999/xlink" xmlns:svgjs="http://svgjs.dev/svgjs" width="1000" height="1125" viewBox="0 0 1000 1125"><g transform="matrix(1,0,0,1,1.7053025658242404e-13,0)"><svg viewBox="0 0 320 360" data-background-color="#ffffff" preserveAspectRatio="xMidYMid meet" height="1125" width="1000" xmlns="http://www.w3.org/2000/svg" xmlns:xlink="http://www.w3.org/1999/xlink"><g id="tight-bounds" transform="matrix(1,0,0,1,0,0)"><svg viewBox="0 0 320 360" height="360" width="320"><g><svg></svg></g><g><svg viewBox="0 0 320 360" height="360" width="320"><g><path d="M20.961 227.22l3.726 4.658-1.863-6.056c-0.466-2.795-3.726 0.466-1.863 1.398M25.153 224.425c1.397 2.329 2.795 4.658 2.795 6.987 0 3.261 2.795 4.658 5.123 5.589-3.261-3.726-5.124-13.974-7.918-12.576M204.017 26.929c7.918 0 15.371-0.932 23.756 0.931 20.495 5.124 37.729 15.371 49.374 29.811l32.606 52.169c1.397 13.042 4.192 27.482 3.726 43.319 3.261 0 2.795-4.658 6.521-5.59-3.726 9.316-5.59 20.961-6.521 34.469-2.329-7.453 0-18.632 0.466-24.687-3.261 5.124-5.124 1.397-5.124-0.932 0.466-3.726-1.397-3.261-2.795-4.658-5.124-4.658-8.384-9.782-12.11-17.7 2.329-6.055 2.795-14.905-4.658-19.563-2.329-1.397-5.124-3.726-6.521-7.453-1.863-5.124-5.124-11.179-4.193-19.097 0.466-2.329-6.987 5.124-11.179 1.863-18.166-12.576-36.332-27.016-58.224-39.127-11.645 0-20.029-4.192-24.221-9.316-3.726-4.658-0.932-10.713 4.658-11.179 3.261 0 6.987-0.932 9.782 0.932 0.466-1.863 2.329-4.192 4.657-4.192M157.904 16.215l0.932 0.466c4.658 0.932 6.987 7.453 12.11 5.124 0 3.261 0.466 6.521-0.466 8.85-1.397 3.726-5.59 3.726-8.85 3.726-31.208-1.863-49.374 11.179-68.471 22.358-5.124 3.261-10.713 5.59-14.906 9.782-20.029 18.632-41.921 35.866-47.045 70.335l-4.192 38.195c-0.466 4.192-5.124 8.384-4.192 13.508l3.26 22.824c-3.261-3.261-5.124 0.932-4.192 2.795 0.466 1.397 2.329 6.055 5.124 1.863 3.726 6.987 7.453 20.495 12.576 26.55 15.837 18.632 36.332 35.4 53.101 52.169 4.192-0.932 7.453-0.932 8.384-3.727 1.397 2.795-1.397 5.59-3.726 6.056 7.453 4.658 15.837 8.85 27.016 9.781 14.44 0.932 27.948 3.261 40.524 6.522 6.521-1.863 13.042-2.795 20.029-3.261 2.329 0 3.726-3.726 6.521-4.658l0.466-4.658c2.795 4.192 2.329-1.397 0.466-4.192 3.261 2.795 4.192 5.124 5.589 6.987 0-1.397 3.726-6.521 3.727-0.466l0.931-6.055c1.397-0.932 1.863 5.124 3.261 0.931 1.397-4.192 4.192-0.932 6.987-2.329-0.932 1.863-0.466 5.59 2.794 3.261l3.727-3.261c2.329 5.59 6.055 3.261 7.918 2.329 20.495-13.042 40.99-28.413 60.553-43.784l-0.466 6.055 2.329-7.453c2.329 2.329 4.192 0.466 5.124-0.931 2.795-4.658 6.521-9.316 12.577-13.508-7.453 20.029-16.303 35.866-27.482 48.908l-4.658 5.59c0 3.261-0.932 7.453-4.658 7.918-1.863 0.466-5.59-0.932-8.384 1.863-1.397 1.863 3.261 5.59-0.466 2.795-3.261-2.329-6.521 0-10.248 0.932-2.795 0.932 1.863 3.726 2.795 5.589 0.932 1.863 1.863 3.726 1.398 6.056l-5.124-5.59c-6.055 3.261-9.782 9.316-14.906 13.974-2.329 1.863-1.397 5.124-1.397 7.918-3.261 0-6.987-0.932-8.85 0.932-1.397 1.863-0.932 4.658-0.932 7.453-4.658-0.466-5.124-7.453-9.315-6.056-4.192 0.932-8.85 1.397-12.577 3.727 2.795 5.59-4.658 2.329-3.726 3.26-6.987-4.192-13.042-7.453-20.495-4.658-15.837-5.124-35.4-2.795-49.84-0.931 0-2.329 0.466-4.658-0.466-5.124-0.932 2.329-3.726 1.397-3.26 1.397-8.85-6.055-17.7-9.782-27.016-14.905-8.384 0.932-16.303-3.261-18.632-5.59-6.521-6.055-13.974-2.795-20.029-4.192-13.042-3.261-17.7-16.769-19.098-26.084-0.932-4.658-4.658-6.521-6.055-6.056-6.055-19.563-15.371-37.263-22.824-55.429-1.863-4.658-1.397-9.316-1.397-14.44 2.329 0.932 4.658 0.466 4.192-2.794-2.329-15.371-7.918-27.016-13.974-38.195 3.261-15.837 3.726-34.469 11.179-48.443 6.521-12.576 18.632-19.098 27.016-29.811 2.795-3.726 2.795-8.85 5.59-12.11 9.316-9.316 18.632-19.098 28.879-27.482 4.658-3.726 10.247 0 17.234-1.397 2.329-8.384 11.645-15.837 20.495-13.508 3.726 0.932 11.179-8.85 13.508-9.782 3.726-1.397 1.863 3.726 1.863 6.987 8.85-6.987 20.961-10.713 32.14-14.906" fill="#000000" fill-rule="nonzero" stroke="none" stroke-width="1" stroke-linecap="butt" stroke-linejoin="miter" stroke-miterlimit="10" stroke-dasharray="" stroke-dashoffset="0" font-family="none" font-weight="none" font-size="none" text-anchor="none" style="mix-blend-mode: normal" data-fill-palette-color="tertiary"></path></g><g transform="matrix(1,0,0,1,86.59574468085107,90)"><svg viewBox="0 0 146.80851063829786 180" height="180" width="146.80851063829786"><g><svg viewBox="0 0 146.80851063829786 180" height="180" width="146.80851063829786"><g><svg viewBox="0 0 146.80851063829786 180" height="180" width="146.80851063829786"><g><svg viewBox="0 0 146.80851063829786 180" height="180" width="146.80851063829786"><g id="textblocktransform"><svg viewBox="0 0 146.80851063829786 180" height="180" width="146.80851063829786" id="textblock"><g><svg viewBox="0 0 146.80851063829786 180" height="180" width="146.80851063829786"><g transform="matrix(1,0,0,1,0,0)"><svg width="146.80851063829786" viewBox="3.32 -36.18 30.880000000000003 37.86" height="180" data-palette-color="#000000"><path d="M34.2-25.37L34.2-25.37Q34.18-23.27 33.8-21.61 33.42-19.95 32.73-18.62 32.03-17.29 31.04-16.22 30.05-15.16 28.78-14.23L28.78-14.23Q26.34-12.48 23.44-11.58 20.53-10.69 17.6-10.69L17.6-10.69Q17.11-10.69 16.64-10.72 16.16-10.74 15.67-10.79L15.67-10.79 14.87-1.88 14.45-1.12Q14.4-1.03 13.62-0.73 12.84-0.44 11.67-0.05L11.67-0.05 10.13 0.46Q9.4 0.73 8.84 0.95 8.28 1.17 7.79 1.34 7.3 1.51 6.84 1.6 6.37 1.68 5.86 1.68L5.86 1.68Q5.52 1.68 5.32 1.51 5.13 1.34 5.13 0.85L5.13 0.85 5.4-3.32Q5.47-4.57 5.58-5.82 5.69-7.08 5.79-8.69L5.79-8.69 6.25-14.53Q6.4-16.31 6.52-18.09 6.64-19.87 6.76-21.48 6.88-23.1 6.98-24.5 7.08-25.9 7.15-26.95L7.15-26.95Q5.83-26.66 5.04-26.53 4.25-26.39 3.83-26.39L3.83-26.39Q3.32-26.39 3.32-26.83L3.32-26.83Q3.66-28.03 3.96-29.17L3.96-29.17Q4.22-30.15 4.5-31.19 4.79-32.23 4.98-32.93L4.98-32.93Q5.1-33.37 5.26-33.61 5.42-33.84 5.68-33.97 5.93-34.11 6.34-34.22 6.74-34.33 7.32-34.52L7.32-34.52Q7.79-34.67 8.63-34.85 9.47-35.03 10.56-35.22 11.65-35.4 12.92-35.57 14.18-35.74 15.49-35.88 16.8-36.01 18.07-36.1 19.34-36.18 20.46-36.18L20.46-36.18Q23.24-36.18 25.73-35.67 28.22-35.16 30.1-33.92 31.98-32.69 33.09-30.6 34.2-28.52 34.2-25.37ZM16.36-18.04L16.36-18.04Q16.36-17.77 16.46-17.57 16.55-17.36 16.99-17.36L16.99-17.36Q17.68-17.36 18.62-17.66 19.56-17.97 20.5-18.58 21.44-19.19 22.24-20.09 23.05-21 23.46-22.22L23.46-22.22Q23.63-22.71 23.74-23.46 23.85-24.22 23.85-25.24L23.85-25.24Q23.85-26.95 22.67-27.76 21.48-28.56 19.58-28.56L19.58-28.56Q19.26-28.56 18.86-28.53 18.46-28.49 18.1-28.39 17.75-28.3 17.5-28.16 17.26-28.03 17.24-27.81L17.24-27.81 17.19-27.27Q17.16-26.95 17.09-26.23 17.02-25.51 16.93-24.58 16.85-23.66 16.76-22.63 16.67-21.61 16.59-20.68 16.5-19.75 16.44-19.04 16.38-18.33 16.36-18.04Z" opacity="1" transform="matrix(1,0,0,1,0,0)" fill="#000000" class="wordmark-text-0" data-fill-palette-color="primary" id="text-0"></path></svg></g></svg></g></svg></g></svg></g><g></g></svg></g></svg></g></svg></g></svg></g><defs></defs></svg><rect width="320" height="360" fill="none" stroke="none" visibility="hidden"></rect></g></svg></g></svg>